<?xml version="1.0" encoding="UTF-8"?>
<!-- Created with Inkscape (http://www.inkscape.org/) -->
<svg width="31mm" height="15mm" version="1.1" viewBox="0 0 59.886 31.302" xmlns="http://www.w3.org/2000/svg">
 <defs>
  <clipPath id="clipPath36286">
   <path d="m105.43 43.763v0.99219h1.0666v-0.87643l-0.28507-0.16458z" display="none" fill="current" stroke="current" stroke-width=".26458px"/>
   <path class="powerclip" d="m99.537 37.72h13.531v14.596h-13.531zm5.89 6.0429v0.99219h1.0666v-0.87643l-0.28507-0.16458z" fill="none" stroke="#000" stroke-width=".26458px"/>
  </clipPath>
  <clipPath id="clipPath36294">
   <path d="m50.574 44.245-3.9756-3.9756h6.361l4.116 3.3208s1.1225 0.5145 1.1225-2.4322v-12.348s-0.09354-2.3386-3.3208-2.3386h-10.009s-2.5725-0.23386-2.5725 2.8063v12.114s-0.37418 3.087 2.9466 2.9934c3.3208-0.09355 5.332-0.14032 5.332-0.14032z" display="none" fill="none" stroke="#000" stroke-width=".26458px"/>
   <path class="powerclip" d="m30.853 18.08h39.964v39.71h-39.964zm19.721 26.166-3.9756-3.9756h6.361l4.116 3.3208s1.1225 0.5145 1.1225-2.4322v-12.348s-0.09354-2.3386-3.3208-2.3386h-10.009s-2.5725-0.23386-2.5725 2.8063v12.114s-0.37418 3.087 2.9466 2.9934c3.3208-0.09355 5.332-0.14032 5.332-0.14032z" fill="none" stroke="#000" stroke-width=".26458px"/>
  </clipPath>
 </defs>
 <g transform="translate(13.714 -104.35)">
  <g transform="translate(-11.88 138.71)">
   <g transform="matrix(.35618 0 0 .35618 66.182 -19.756)">
    <g transform="translate(-152.85,92.971)">
     <g transform="translate(27.638 -102.76)">
      <g fill="current">
       <path d="m55.167 49.152 4.1672 3.638 6.4823-0.06615-5.2255-4.9609s2.9104-0.8599 2.9104-5.0271v-14.751s-0.7276-4.101-5.9531-4.6302c-5.2255-0.52917-15.015-0.13229-15.015-0.13229s-6.6807 0.26458-6.6807 5.9531c0 5.6885 0.13229 14.42 0.13229 14.42s0.59531 4.9609 5.8208 4.9609h12.766z" clip-path="url(#clipPath36294)"/>
       <path d="m-60.588 48.755 0.06615-21.365 9.1281 20.307s1.9844 1.8521 4.4979 1.5875c2.5135-0.26458 4.1672-1.6536 4.1672-1.6536l9.1281-19.315v20.373h5.7547v-23.746s-1.0583-2.3151-4.3656-2.4474c-3.3073-0.13229-5.3578 1.5875-5.3578 1.5875l-9.525 20.108-8.9958-19.778s-2.1167-2.3151-5.7547-1.5875-3.9026 1.8521-3.9026 1.8521v24.209z"/>
       <path d="m-2.3135 48.424s1.4552 4.2995-3.1089 4.2995h-17.727v3.9688h20.637s6.0193-0.7276 6.0193-7.3422v-18.918h-5.5562v14.684h-13.097s-2.4474 0.13229-2.4474-3.0427v-11.245h-5.6224v12.435s0.39688 4.7625 4.7625 4.7625 16.14 0.39688 16.14 0.39688z"/>
       <path d="m7.4851 45v4.0224h16.464s8.3254-0.65481 8.3254-7.6706c0-7.0158-7.1561-7.1561-7.1561-7.1561h-9.4012s-2.3386-0.14032-2.3386-3.6015c0-3.4611 0.65481-3.6482 3.8353-3.6482h15.435v-4.0224h-19.738s-5.5191 1.3096-5.5191 7.7642 7.6706 6.6416 7.6706 6.6416h8.419s3.087-0.09354 3.087 4.116c0 4.2095-3.5547 3.5547-3.5547 3.5547z"/>
       <path d="m66.933 23.064v18.662s0.23386 6.6416 6.6416 6.6416h18.288v-3.9289h-16.37s-2.7128 0.42095-2.7128-3.4611v-17.867z"/>
      </g>
      <path transform="translate(-7.9375 .31419)" d="m104.54 42.802v4.5135h0.95883v-1.5903h0.77174l0.88738 1.537h0.91334l-1.1612-2.0113 0.58315-0.58316v-1.4448l-1.0458-0.50325z" clip-path="url(#clipPath36286)" fill="#03444a"/>
      <circle cx="98.282" cy="45.363" r="4.1043" fill="none" stroke="current" stroke-width=".82127"/>
      <g fill="current" stroke="current">
       <path d="m66.465 18.41s-4.5369-4.5603-6.8287-9.7052-2.7596-5.7062-2.7596-5.7062-0.04677-1.637-1.3096 0c-1.2628 1.637-2.058 4.9578-2.1983 7.2497-0.14032 2.2918-1.4499 0.65481-1.4499 0.65481s-2.5257-4.8643-2.3386-8.6061c0.18709-3.7418 1.637-7.2731 1.637-7.2731s1.1693-2.1047-0.6782-3.6716-3.1438-6.1638-3.1438-6.1638-2.0411-4.862-2.9766-6.4823c-0.93546-1.6203-3.2081-4.9279-3.2081-4.9279s-1.1576-2.4805 2.3151-1.7859c3.4727 0.69453 4.7294 2.282 4.7294 2.282s0.92604 1.2898 4.4648 1.5544c3.5388 0.26458 8.3674 1.9844 12.435 6.0523 4.068 4.068 8.9335 8.6526 11.085 14.639 2.1515 5.9868 4.7942 10.22 4.7942 10.22s2.0298 3.0875 4.5765 3.4843c2.5466 0.39688 9.6738 5.2255 9.6738 5.2255s1.6536 1.2237-0.19844 1.356c-1.8521 0.13229-7.0445 1.4221-7.0445 1.4221s-2.7781 0.56224-0.59531 2.4805c2.1828 1.9182 4.1351 4.0622 6.6608 5.3251 2.5257 1.2628 4.6772 2.666 4.7708 2.8063 0.09354 0.14032 5.0982 3.999 0.79513-0.77174-4.303-4.7708-7.4134-6.1973-7.4134-6.1973s-3.7418-1.5903-0.04677-2.2451c3.695-0.65481 5.6828-1.2161 5.6828-1.2161s2.8297-0.42095-0.3274-3.1103c-3.1571-2.6894-9.3077-6.9223-11.459-7.4368-2.1515-0.51449-3.2741-2.8063-3.6482-4.2095-0.37418-1.4032-5.753-12.628-7.7174-15.435-1.9644-2.8063-7.207-8.5202-12.366-11.497-5.1594-2.9766-8.4005-3.175-8.4005-3.175s-2.1828-0.26458-5.0932-1.9844c-2.9104-1.7198-6.813-2.249-6.813-2.249s-3.175 0.39688-3.0427 3.1089c0.13229 2.712 0.8599 3.3073 0.8599 3.3073s0.7276 1.3229 1.9182 2.7781 1.7859 2.5135 2.5797 4.4318c0.79375 1.9182 2.0141 5.7935 2.0141 5.7935s0.83014 2.0447 1.4916 2.6401 1.9513 1.2898 1.1576 3.7703c-0.79375 2.4805-1.1245 4.8617-1.1245 4.8617s-0.56224 6.5154 1.1245 9.5911c1.6867 3.0758 2.1993 3.423 2.1993 3.423s0.92604 0.84336 2.0174 0.69453 2.3647-0.7276 2.5962-2.4309c0.23151-1.7033 0.38034-2.6789 0.38034-2.6789s0.28112-1.7033 1.0583-0.033073c0.77721 1.6702 3.7703 5.5893 3.7703 5.5893s3.2577 3.4561 4.3822 4.068c1.1245 0.61185 0.99864 0.33027 1.0119 0.18167z"/>
       <path d="m53.309-19.537s-0.678-0.1819-0.19844 0.89297c0.47956 1.0749 1.4717 2.249 1.4717 2.249s0.94034 0.60402 0.94034-0.25196-0.01431-1.6167-0.01431-1.6167-0.39688-1.2237-1.2733-1.2568c-0.87643-0.03307-0.92604-0.01654-0.92604-0.01654z"/>
      </g>
      <circle cx="98.256" cy="45.418" r="3.4765" fill="none" stroke="current" stroke-width=".56151"/>
     </g>
    </g>
   </g>
  </g>
 </g>
</svg>
