<?xml version="1.0" encoding="UTF-8"?>
<!-- Created with Inkscape (http://www.inkscape.org/) -->
<svg width="30mm" height="15mm" version="1.1" viewBox="0 0 44.113 35.424" xmlns="http://www.w3.org/2000/svg" aria-labelledby="Postgresql" role="img">
 <defs>
  <clipPath id="clipPath34944-2">
   <path d="m39.276-3.5002s-0.46302 1.356 1.3229 1.7529c1.7859 0.39688 1.5379-1.2898 1.5379-1.2898s-0.99219-1.4552-2.8608-0.46302z" display="none" fill="none" stroke="#000" stroke-width=".26458px"/>
   <path class="powerclip" d="m29.62-9.6051h18.783v27.024h-18.783zm9.6552 6.1049s-0.46302 1.356 1.3229 1.7529c1.7859 0.39688 1.5379-1.2898 1.5379-1.2898s-0.99219-1.4552-2.8608-0.46302z" fill="none" stroke="#000" stroke-width=".26458px"/>
  </clipPath>
  <clipPath id="clipPath34952-7">
   <path d="m57.73-3.4837s-0.08268 1.1576 1.4387 1.1576c1.5214 0 1.1741-1.604 1.1741-1.604s-1.8686-0.59531-2.6128 0.44648z" display="none" fill="#03444a" stroke="#000" stroke-width=".26458px"/>
   <path class="powerclip" d="m51.523-9.8285h15.606v24.064h-15.606zm6.2074 6.3448s-0.08268 1.1576 1.4387 1.1576c1.5214 0 1.1741-1.604 1.1741-1.604s-1.8686-0.59531-2.6128 0.44648z" fill="#03444a" stroke="#000" stroke-width=".26458px"/>
  </clipPath>
 </defs>
 <g transform="translate(5.1262 -103.54)">
  <g transform="translate(-11.88 138.71)">
   <g transform="matrix(.35618 0 0 .35618 66.182 -19.756)">
    <g transform="translate(-152.85,92.971)">
     <g transform="matrix(2.8076 0 0 2.8076 -420.98 -119.43)">
      <g transform="matrix(.55257 0 0 .52735 138.99 2.5081)" fill="current">
       <g transform="translate(2.6458 -7.6729)" font-family="sans-serif">
        <text transform="scale(1.0142 .98599)" x="6.7910938" y="56.904251" font-size="12.895px" stroke-width=".32237" style="line-height:1.25" xml:space="preserve"><tspan x="6.7910938" y="56.904251" fill="#current" stroke-width=".32237">Postgre</tspan></text>
        <text transform="scale(1.0355 .9657)" x="54.412796" y="58.948551" font-size="19.797px" stroke-width=".49492" style="line-height:1.25" xml:space="preserve"><tspan x="54.412796" y="58.948551" fill="#current" font-family="Calibri" font-size="19.797px" stroke-width=".49492" style="font-variant-caps:normal;font-variant-east-asian:normal;font-variant-ligatures:normal;font-variant-numeric:normal">SQL</tspan></text>
       </g>
       <g transform="translate(-1.3229 2.3812)">
        <path d="m36.016 12.353s-3.4611-2.8999-2.8999-7.9513c0.56127-5.0514 0.28895-5.5872 0.09051-7.2409-0.19844-1.6536 0.13229-6.813 1.8521-9.525 1.7198-2.712 2.7781-3.7703 2.7781-3.7703s-5.424-2.249-9.525-1.4552c-4.101 0.79375-6.7469 1.9182-7.9375 7.6729-1.1906 5.7547 2.9196 19.089 4.1357 21.802 1.2161 2.7128 3.2741 6.1739 4.7708 6.7352 1.4967 0.56127 5.0514-4.5837 5.0514-4.5837z"/>
        <path d="m40.747 12.375s2.8443-6.4823 2.6458-9.988c-0.19844-3.5057 0-7.7391-4.2995-6.8792s-4.0349 1.7859-4.0349 1.7859 0.26458 3.175 0 4.8286c-0.26458 1.6536-1.1906 5.9531 0.8599 7.4745 2.0505 1.5214 3.3734 3.1089 4.8286 2.7781z" clip-path="url(#clipPath34944-2)"/>
        <path d="m34.993-4.757 3.7042-1.3891s5.0932-1.2568 5.8208 3.4396c0.7276 4.6964 0.66146 5.5562 0.66146 5.5562s0.33073 3.5057-1.3229 6.2839c-1.6536 2.7781-1.5875 3.8365-1.5875 3.8365s4.0349 0 3.8365 3.2411c-0.19844 3.2411 0.15403 12.185 0.15403 12.185s0.04677 5.6127 5.0982 5.0982c5.0514-0.51449 5.9401-3.4611 5.9401-3.4611l1.8241-14.312s0.04677-2.1398 1.1927-2.5491c1.1459-0.40926 1.0407-0.5028 1.0407-0.5028s-5.0397-7.7993-5.9751-11.401c-0.93544-3.6015-0.51028-7.5798 2.8962-7.6459 3.4065-0.066146 3.2081 0 3.2081 0s-0.29766-2.282-2.0505-4.3987c-1.7529-2.1167-5.9531-7.5737-13.328-7.0776-7.3753 0.49609-10.319 5.424-11.112 13.097z"/>
        <path d="m53.509-18.002s6.8755-1.6838 11.085 1.1693c4.2095 2.8531 6.2675 4.4434 5.2385 9.1206-1.029 4.6772-3.9756 13.611-5.0982 15.482-1.1225 1.8709-1.828 3.1085-1.828 3.1085s-0.26458 0.50436-0.55397 0.24805c-0.28939-0.25632 0.24805-0.91777 0.24805-0.91777s1.4323-2.8598 0.94123-5.1048c-0.49111-2.2451-0.44434-6.1973-0.21047-6.8054 0.23386-0.60804 1.2628-5.0514-1.1225-7.811-2.3854-2.7596-2.9165-6.3385-8.6996-8.4891z"/>
        <path d="m36.927 18.981s-1.6619-0.38861-0.02479-0.71107c1.6371-0.32246 3.3734-0.46302 4.4814-2.3316s1.8355-1.8604 2.4143-1.0418 0.9095 1.695-0.23978 2.5632-3.4644 1.9596-5.0519 1.7446-1.5792-0.22324-1.5792-0.22324z"/>
        <path d="m60.773 8.5053s0.44648 1.6867 0.71107-0.066146c0.26458-1.7529 0.7712-2.8209 0.06962-6.2353-0.70158-3.4144 0.37418-5.4723 0.37418-5.4723s0.70158-1.5435-0.5145-1.5435c-1.2161 0-2.9934-0.14032-3.695 0.39756-0.70158 0.53788-1.2395 1.3564-1.1927 2.7362 0.04677 1.3798 1.4266 5.5425 2.0814 6.1272 0.65481 0.58465 2.166 4.0564 2.166 4.0564z" clip-path="url(#clipPath34952-7)"/>
        <path d="m60.665 16.61s-0.14032-1.3798 0.63142-1.9878c0.77174-0.60804 1.5435-0.18709 1.8709 0.02339 0.3274 0.21048 2.2684 1.0991 4.2329 0.53788s2.1749-0.46772 2.1749-0.46772 0.60804 0.04677-0.25725 0.46772c-0.86529 0.42095-3.2273 1.9878-5.3086 1.8241-2.0814-0.1637-1.4967 0.04677-3.3442-0.39756z"/>
       </g>
      </g>
     </g>
    </g>
   </g>
  </g>
 </g>
</svg>
