<?xml version="1.0" encoding="UTF-8"?>
<!-- Created with Inkscape (http://www.inkscape.org/) -->
<svg width="25mm" height="15mm" version="1.1" viewBox="0 0 69.672 31.487" xmlns="http://www.w3.org/2000/svg">
 <g transform="translate(-67.972 -103.13)">
  <g transform="translate(73.121 98.562)">
   <g transform="matrix(.93995 0 0 1.0639 38.365 -47.89)" fill="current" stroke-width=".46657" aria-label="SQLite">
    <path d="m-20.468 76.422-0.37362-0.01823q0.01823-1.2667-0.5012-3.0436 0.2187-0.06379 0.29161-0.0729 0.2187 0.68345 0.33717 0.99328 0.12758 0.30072 0.31894 0.53765 0.20048 0.22782 0.54676 0.41007 0.59232 0.30983 1.3669 0.55587t1.6676 0.24604q0.77458 0 1.5492-0.38273 0.78369-0.38273 0.78369-1.6858 0-0.65611-0.22782-1.13t-0.60144-0.76547q-0.36451-0.29161-0.85659-0.51942-0.48297-0.22782-1.2576-0.51942-1.0753-0.39185-1.777-0.80192-0.69256-0.41007-1.1026-1.0115t-0.41007-1.4671q0-1.376 1.0115-2.2873 1.0115-0.92038 2.8887-0.92038 0.95683 0 1.8863 0.20048 0.37362 0.0729 0.46475 0.0729 0.27338 0 0.54676-0.18225l0.0729-0.03645q0.0729 0 0.18225 0.03645-0.02734 0.20959-0.05468 0.41918-0.01823 0.20048-0.04556 0.44652-0.01822 0.24604-0.02734 0.38273-0.0091 0.13669-0.01822 0.18225 0.11846 1.1026 0.10935 1.2029l-0.27338 0.01823q-0.0729-0.9295-0.61055-1.458-0.53765-0.53765-1.212-0.72902-0.67434-0.19137-1.294-0.19137-1.5127 0-2.0048 0.7928-0.48297 0.78369-0.48297 1.4854 0 0.73813 0.36451 1.2302 0.36451 0.48297 0.90216 0.76547 0.54676 0.27338 1.5309 0.65611 1.1117 0.43741 1.7861 0.81103 0.67434 0.36451 1.2029 1.0662 0.52854 0.69256 0.52854 1.7223 0 0.87482-0.45563 1.5765-0.45564 0.70168-1.3669 1.1117-0.91127 0.41007-2.2326 0.41007-1.2849 0-2.67-0.37362-0.24604-0.05468-0.30072-0.05468-0.23693 0-0.18225 0.31894z"/>
    <path d="m1.9674 78.236 0.10935 0.2187q-0.54676 0.26427-1.1938 0.3554-0.647 0.09113-1.0753 0.09113-2.8978 0-5.6043-2.2873-0.92038-0.01823-1.4398-0.10935-0.51942-0.08201-1.2484-0.38273-1.1938-0.51942-2.0048-1.4489-0.80192-0.9295-1.212-2.0321-0.40096-1.1117-0.40096-2.1688 0-1.5765 0.85659-2.989 0.85659-1.4125 2.3055-2.2417 1.458-0.83837 3.1439-0.83837 1.0935 0 2.1779 0.43741 1.0935 0.4283 1.9501 1.2211 0.85659 0.78369 1.3669 1.9228 0.51942 1.13 0.51942 2.4878 0 1.2758-0.51031 2.4331-0.5012 1.1482-1.4307 2.0412-0.44652 0.43741-0.89304 0.69256-0.44652 0.25516-1.2029 0.58321 3.0163 2.105 5.0211 2.105 0.29161 0 0.76547-0.09113zm-12.712-8.4201q0 1.212 0.4283 2.3146 0.4283 1.1026 1.1938 1.9775 0.76547 0.87482 1.7496 1.3669 0.98417 0.48297 2.0412 0.48297 1.0297 0 1.9775-0.51942 0.95683-0.51942 1.5674-1.5856 0.61966-1.0753 0.61966-2.6518 0-1.2849-0.41007-2.4058-0.41007-1.13-1.13-1.9683t-1.6676-1.3122-1.9957-0.47386q-1.1482 0-2.1506 0.5741-1.0024 0.56499-1.6129 1.6585-0.61055 1.0935-0.61055 2.5424z"/>
    <path d="m1.8216 64.986v-0.31894q1.1482 0.0091 1.5036 0.01823 0.3554 0.0091 0.59233 0.01823 1.5309 0 2.0139-0.03645l-0.018225 0.3554q-0.62878 0.05468-0.93861 0.15492-0.30983 0.09113-0.44652 0.40096-0.082014 0.20048-0.11846 1.0024t-0.063789 2.0595q-0.036451 1.4125-0.054676 2.5607-0.018225 1.1482-0.018225 2.2782 0 1.0297 0.054676 1.5218 0.054676 0.49209 0.18225 0.61966 0.15492 0.11846 0.51031 0.17314 0.36451 0.05468 1.54 0.05468 1.294 0 2.1597-0.20959 0.87482-0.20959 1.3122-0.44652 0.58321-0.3554 0.80192-1.212l0.30072 0.03645q-0.05468 0.37362-0.24604 1.1209-0.19137 0.74724-0.44652 1.3578-0.78369-0.09113-1.2484-0.09113-0.28249-0.0091-0.52854-0.01823-0.23693 0-0.55587 0h-6.3971l-0.018225-0.28249q0.53765-0.10935 0.78369-0.23693 0.24604-0.12758 0.36451-0.43741 0.12758-0.31894 0.15492-0.94772 0.036451-0.62878 0.036451-1.8134l0.018225-4.0096q0.018225-1.3578 0-2.0595-0.018226-0.70168-0.12758-1.0389-0.10935-0.34628-0.34628-0.44652-0.23693-0.10935-0.75635-0.12758z"/>
    <path d="m12.055 76.422 0.03645-0.28249q0.77458-0.0729 0.87482-0.27338 0.04556-0.08201 0.08201-0.647 0.03645-0.5741 0.05468-1.3578 0.02734-0.7928 0.02734-0.89304 0-1.294-0.04556-1.6585-0.03645-0.36451-0.15492-0.5012-0.03645-0.04556-0.45564-0.09113-0.41918-0.04556-0.41918-0.11846 0-0.1458 0.16403-0.18225 1.0844-0.33717 2.1233-1.1938 0.06379 0 0.17314 0.03645-0.09113 0.37362-0.15492 1.0935-0.06379 0.7199-0.10935 1.5127-0.03645 0.7928-0.03645 1.4034 0 0.45564 0.02734 1.3122 0.03645 0.84748 0.11846 1.1482 0.0729 0.16403 0.18225 0.20959 0.10935 0.04556 0.43741 0.0729 0.31894 0.0091 0.63789 0.05468l0.10935 0.26427zm1.376-10.899q0-0.30983 0.20959-0.51031 0.20959-0.20048 0.5012-0.20048 0.29161 0 0.49208 0.20959t0.20048 0.5012q0 0.29161-0.20048 0.5012-0.19137 0.20959-0.49208 0.20959-0.29161 0-0.5012-0.20959t-0.20959-0.5012z"/>
    <path d="m17.258 73.77 0.04556-3.5448q-0.41918-0.05468-0.97506-0.05468 0.01822-0.0729 0.01822-0.22782 0.7928-0.48297 1.2393-0.92038 0.44652-0.43741 1.0571-1.2393l-0.09113 1.6403q0.78369 0.0729 1.7132 0.0729 0.44652 0 0.97506-0.01823l-0.01822 0.56499q-0.47386 0.05468-0.97506 0.05468-0.04556 0-0.3554-0.0091-0.30983-0.01823-0.96595-0.04556-0.17314 0-0.26427 0.03645-0.08201 0.02734-0.11846 0.11846-0.02734 0.09113-0.04556 0.34628-0.0091 0.25516-0.01823 0.53765l-0.04556 2.8432q-0.01823 0.82014 0.18225 1.3578 0.20959 0.52854 0.99328 0.52854 0.30072 0 0.73813-0.12758 0.44652-0.13669 1.0206-0.40096 0.01823 0.0729 0.01823 0.10935 0.0091 0.03645 0.01823 0.08201-0.31894 0.34628-1.1755 0.68345-0.84748 0.33717-1.5309 0.33717-0.59232 0-1.0206-0.40096-0.41918-0.41007-0.41918-1.4034z"/>
    <path d="m27.829 71.647-4.5563 0.98417q0.04556 0.85659 0.16403 1.3305 0.12758 0.46475 0.49208 0.94772 0.70168 0.92038 1.695 0.92038 0.41007 0 0.87482-0.15492 0.46475-0.15492 1.0297-0.55588l0.16403 0.2187q-1.5856 1.1391-2.8158 1.1391-1.3031 0-2.0321-0.98417-0.72902-0.98417-0.72902-2.2599 0-1.3031 0.55587-2.1597 0.55588-0.86571 1.2484-1.2576 0.69256-0.39185 1.048-0.39185 0.41007 0 0.84748 0.13669 0.44652 0.12758 0.86571 0.5012 0.4283 0.37362 0.71079 1.0206 0.08201 0.13669 0.15492 0.18225 0.0729 0.04556 0.26427 0.04556zm-4.5381 0.62878 1.1938-0.25516q0.0729-0.03645 0.54676-0.1458 0.48297-0.10935 0.647-0.13669 0.47386-0.10935 0.60144-0.15492 0.12758-0.04556 0.12758-0.1458 0-0.1458-0.2187-0.49209-0.2187-0.3554-0.62878-0.647-0.40096-0.29161-0.94772-0.29161-0.68345 0-0.97506 0.7199-0.28249 0.7199-0.34628 1.5492z"/>
   </g>
   <g transform="translate(30.133 -2.2399)">
    <path d="m-14.281 9.364h-18.335s-2.666-0.09355-2.666 2.666v20.065s0 2.5491 2.5491 2.5491h11.997l1.7773-16.44z" fill="current"/>
    <g transform="translate(-15.114 1.1421)" stroke="current" stroke-width=".1">
     <path d="m2.5432 5.7794c-0.51035-0.00566-1.0986 0.20154-1.7653 0.75189-2.8443 2.3482-3.3178 2.393-5.025 5.8074-1.7072 3.4144-2.4086 6.5247-2.4086 6.5247l-0.33848 1.0211 1.0087 2.0423-0.03307 0.14056-1.0997-1.6702-0.45475 1.5627 0.94258 2.1993-0.03307 0.34726-0.13229-0.09922-1.0418-1.9017-0.14883 1.9678s1.571 2.3482 1.604 4.2003c0.03307 1.8521 0.099219 5.1594 0.099219 5.1594l1.321 2.0476-0.37418-2.362-0.89877-6.1896s0.49126-3.7651 2.1751-7.7174c1.6838-3.9522 3.73-7.3753 3.73-7.3753s1.6867-2.6458 2.9104-3.6711c0.2485-0.2082 0.32922-0.21647 0.31523-0.11472 0.01643-0.011943 0.03307-0.023866 0.04857-0.03669 0.03147-0.017407 0.06222-0.036329 0.09354-0.05426 0.06804-0.13707 0.14897-0.23643 0.262-0.32608 0.01741-0.06698 0.05599-0.11825 0.17518-0.21394 0.02874-0.023074 0.06511-0.031752 0.10232-0.038757 1.1355-0.65505 0.23905-0.13023 1.0382-0.53899-0.40346-0.65472-1.089-1.4515-2.0722-1.4624zm1.034 2.0014c0.03138-0.00591 0.06354-0.010406 0.0925-0.021704 0.10387-0.04052-0.08163 0.016605-0.0925 0.021704z" opacity=".14829"/>
     <path d="m-4.2657 28.012s0.29766-1.0583 1.6206-2.0505c1.3229-0.99219 1.3725-0.74414 1.3725-0.74414l2.9766-3.853s-0.8599-0.04961-2.1497 0.52917c-1.2898 0.57878-1.5379 0.71107-1.5379 0.71107s0.42995-1.0418 2.4143-1.7694c1.9844-0.7276 1.8852-0.46302 1.8852-0.46302s4.1672-7.3753 4.2003-9.4258c0.033073-2.0505-0.28112-2.927-0.28112-2.927s-1.4221-3.9026-4.2664-1.5544c-2.8443 2.3482-3.3175 2.3928-5.0247 5.8072-1.7072 3.4144-2.4088 6.5247-2.4088 6.5247l-0.33865 1.0213 1.0087 2.0423-0.03307 0.14056-1.0997-1.6702-0.45475 1.5627 0.94258 2.1993-0.03307 0.34726-0.13229-0.09922-1.0418-1.9017-0.14883 1.9678s0.94258 2.3482 0.97565 4.2003c0.03307 1.8521 0.19844 4.8948 0.19844 4.8948l0.65955 2.3783-0.37418-2.362 0.29233-6.2558s0.49111-3.7652 2.1749-7.7174c1.6838-3.9522 3.7297-7.3752 3.7297-7.3752s1.6867-2.6458 2.9104-3.6711c1.2237-1.0253-1.3395 2.4805-1.3395 2.4805s-2.5301 3.9688-4.2829 8.7974c-1.7529 4.8286-2.5466 6.4823-2.4143 8.2352z" fill="current"/>
    </g>
   </g>
  </g>
 </g>
</svg>
