<?xml version="1.0" encoding="UTF-8"?>
<!-- Created with Inkscape (http://www.inkscape.org/) -->
<svg width="20mm" height="15mm" version="1.1" viewBox="0 0 40.686 17.084" xmlns="http://www.w3.org/2000/svg" aria-labelledby="Git" role="img">
<title>Git</title>
	<g transform="translate(-106.46 -220.64)">
		<g transform="scale(.99996 1)" fill="current" stroke-width=".48037" aria-label="git">
			<path transform="matrix(1 0 0 .99996 1.0834e-6 6.8747e-7)" d="m114.41 231.43 0.34255-4.0198s-0.39081 0.11144-0.82687 0.0171c-0.15277-0.033-0.53225-0.29863-0.77498-0.52519-0.22115-0.20642-0.40736-0.7085-0.42969-0.86527-0.074-0.65063 0.45066-1.3311 0.45066-1.3311l-1.3181-1.2708s-0.0769-0.0838-0.13859-0.0203c-0.0617 0.0636-4.9042 4.9042-4.9042 4.9042s-0.71801 0.6739-0.0813 1.3717c0.63669 0.69776 7.3121 7.312 7.3121 7.312s0.77196 0.8298 1.6018 0c0.8298-0.82979 7.2044-7.2044 7.2044-7.2044s0.66508-0.82748 0-1.4926c-0.66508-0.66507-7.3703-7.3702-7.3703-7.3702s-0.61998-0.66546-1.2854 0l-1.5606 1.5606s-0.15779 0.13681 0 0.2946c0.15778 0.15779 1.1651 1.2832 1.1651 1.2832s0.66477-0.24456 1.236-0.17211c0.55363 0.0702 0.74291 0.20936 0.95289 0.34279 0.22525 0.14313 0.38364 0.52682 0.416 0.86543 0.0697 0.72968-0.29003 1.265-0.29003 1.265l1.6768 1.7214s1.2067-0.66782 2.1742 0.12949c0.9006 1.3774 0.35608 2.3006-0.054 2.731-0.52173 0.65355-1.851 0.49614-2.5468-0.23949-0.74042-0.62411-0.22366-2.049-0.22366-2.049l-1.6316-1.6316s-0.13445-0.13467-0.13445 0.0776v4.341s0.0174 0.0571 0.083 0.0627c0.86921 0.0747 1.0389 1.1281 1.0134 1.8205-0.0974 1.2957-1.1791 1.6796-1.737 1.5699-0.46863 0.15803-2.0086-0.57432-1.7604-1.8853 9e-3 -0.79115 0.5087-1.5282 1.4393-1.5933z" fill="current"/>
			<path d="m135.02 225.49-1.7357-0.0657-0.0844 0.10321q0.29085 0.29084 0.45973 0.79748 0.16888 0.49726 0.16888 1.079 0 1.5293-0.9476 2.3643-0.93822 0.82563-2.6739 0.82563-0.77872 0-1.3416-0.19702-0.71305 0.54416-0.71305 1.0696 0 0.34715 0.13135 0.52541 0.14073 0.17826 0.45035 0.25332 0.31899 0.075 0.95698 0.075h2.2517q0.99451 0 1.6231 0.30961 0.6286 0.30962 0.8913 0.83502 0.27209 0.51602 0.27209 1.2103 0 0.88192-0.50664 1.5668-0.50664 0.69428-1.4636 1.079t-2.233 0.38467q-0.9476 0-1.7357-0.11258-0.77872-0.11259-1.3416-0.38467-0.55355-0.2627-0.86316-0.70367-0.30023-0.43158-0.30023-1.0883 0-0.59108 0.39405-1.079 0.39405-0.47849 1.1165-0.8444-0.44096-0.17826-0.69428-0.5254t-0.25332-0.81625q0-0.53478 0.30023-0.97574 0.30023-0.45035 1.0602-1.0227-0.67551-0.39405-1.032-1.0696-0.34714-0.67552-0.34714-1.5387 0-0.80686 0.26271-1.3979 0.27208-0.60046 0.74119-0.98513 0.47849-0.39405 1.1259-0.58169 0.64737-0.19703 1.3979-0.19703 0.67552 0 1.3416 0.1595h3.3213zm-6.5112 1.9046q0 1.1728 0.4785 1.8108 0.47849 0.63799 1.3792 0.63799 0.47849 0 0.81624-0.17826 0.33776-0.18765 0.54417-0.50664 0.21579-0.319 0.30961-0.73181 0.10321-0.4222 0.10321-0.88193 0-0.82563-0.23456-1.3792-0.23455-0.55354-0.63799-0.80686-0.40343-0.2627-0.92883-0.2627-0.89131 0-1.3604 0.59107-0.46911 0.59108-0.46911 1.7076zm0.23456 6.2673q-0.47849 0.35653-0.72243 0.75058-0.23455 0.40343-0.23455 0.91007 0 0.8444 0.66613 1.2384 0.67552 0.40343 2.0547 0.40343 0.84439 0 1.4448-0.22517 0.60985-0.22517 0.92884-0.64737t0.31899-0.98513q0-0.2627-0.0657-0.51602-0.0657-0.24394-0.25332-0.44096-0.17826-0.19703-0.51602-0.319-0.33776-0.11258-0.88193-0.11258h-1.3979q-0.75996 0-1.3416-0.0563z"/>
			<path d="m138.79 220.87v1.8202h-1.7263v-1.8202zm-2.6833 12.187q0.3659-0.11258 0.51602-0.19702 0.15949-0.0844 0.2627-0.23456 0.11258-0.15011 0.16888-0.45972 0.0657-0.30962 0.0657-0.96637v-4.0906q0-0.60046-0.0188-0.96636-0.0188-0.36591-0.13135-0.5817-0.11259-0.22517-0.34714-0.32837-0.22518-0.11259-0.64737-0.18765v-0.49725l2.186-0.0844h0.57232v6.7082q0 0.80687 0.0751 1.1259 0.0751 0.30961 0.28147 0.47849 0.21579 0.15949 0.69428 0.28146v0.45973h-3.6778z"/>
			<path d="m140.88 225.02q0.46911-0.0751 0.75996-0.26271 0.29085-0.18764 0.45035-0.47849 0.16887-0.30023 0.2627-0.74119 0.0938-0.45034 0.19702-1.3041h1.3323v2.3174h3.0304v0.9476h-3.0304v4.1751q0 0.91007 0.0751 1.4542 0.0751 0.53479 0.28146 0.8444 0.20641 0.30023 0.46911 0.43158t0.67552 0.13135q0.37529 0 0.70366-0.15011 0.32838-0.1595 0.64737-0.45035l0.4222 0.50664q-0.66613 0.64737-1.2666 0.93822-0.59108 0.29084-1.2291 0.29084-1.2103 0-1.8014-0.71304-0.59107-0.72243-0.59107-2.2517v-5.2071h-1.3886z"/>
		</g>
	</g>
</svg>
