<?xml version="1.0" encoding="UTF-8"?>
<!-- Created with Inkscape (http://www.inkscape.org/) -->
<svg width="18mm" height="15mm" version="1.1" viewBox="0 0 22.451 18.07" xmlns="http://www.w3.org/2000/svg" aria-labelledby="Git Hub" role="img">
 <g transform="translate(-113.95 -218.83)">
  <g fill="current">
   <path d="m122.72 230.71s0.72179 0.36879 0.69384-0.45c-0.0279-0.81879-0.0226-0.92544-0.0226-0.92544s-0.69599 0.19418-1.174 0.0263-0.77898-0.51546-0.77898-0.51546-0.26845-0.72734-0.60545-0.96999-0.39033-0.28998-0.39033-0.28998-0.22206-0.1363 0.10925-0.20163c0.33131-0.0653 0.74851 0.21324 0.74851 0.21324s0.17425 0.16689 0.36162 0.48893 0.55349 0.48556 0.55349 0.48556 0.29119 0.13116 0.51942 0.10684c0.22824-0.0243 0.66165-0.11117 0.6796-0.15778 0.0179-0.0466 0.0264-0.33023 0.14782-0.50695 0.12144-0.17671 0.24253-0.31415 0.24253-0.31415s-2.0868-0.0853-2.6216-1.7855c-0.53478-1.7002 0.30385-2.6635 0.45779-2.8843 0.15394-0.22084-0.18822-1.2119 0.0786-1.6364 0.26681-0.42448 1.6489 0.65751 1.6489 0.65751s0.85631-0.30826 1.7559-0.21856 1.337 0.21629 1.337 0.21629 0.98316-0.7749 1.631-0.64647 0.0503 1.6083 0.0503 1.6083 0.89375 0.76202 0.65906 2.1983c-0.23469 1.4363-0.89204 1.8156-0.89204 1.8156s-1.0144 0.65264-1.6427 0.63063c-0.62821-0.022-0.17428 0.12613-0.17428 0.12613s0.31152 0.14596 0.32036 0.80964c9e-3 0.66368 0 1.9004 0 1.9004s-0.0579 0.47039 0.53811 0.31068c0.59606-0.15971 4.0884-1.4011 4.0884-6.1811s-4.8932-5.8718-6.2502-5.7928c-0.92501 0.0538-6.0025 0.78263-6.0025 6.0025s3.933 5.8798 3.933 5.8798z"/>
   <g transform="scale(.98358 1.0167)" stroke-width=".17263" aria-label="GitHub">
    <path d="m120.14 232.58q-0.73166 0.42484-1.7668 0.42484-1.1531 0-1.8342-0.6676-0.68108-0.67097-0.68108-1.8241 0-1.1599 0.74177-1.8983 0.74177-0.74177 1.9623-0.74177 0.79572 0 1.3824 0.22927v0.93396q-0.57319-0.34728-1.4094-0.34728-0.7384 0-1.2037 0.48889-0.46193 0.48553-0.46193 1.2846 0 0.81595 0.41809 1.2711 0.4181 0.45181 1.1464 0.45181 0.44506 0 0.74177-0.14499v-1.0958h-1.0182v-0.78223h1.9826z"/>
    <path d="m120.97 228.21q0-0.21579 0.15172-0.36078 0.1551-0.14498 0.39786-0.14498 0.23602 0 0.39449 0.14498 0.15847 0.14162 0.15847 0.36078t-0.15847 0.36414q-0.1551 0.14498-0.39449 0.14498t-0.39449-0.14835q-0.15509-0.14836-0.15509-0.36077zm0.0742 4.7102v-3.5436h0.93734v3.5436z"/>
    <path d="m124.95 232.88q-0.23939 0.12139-0.66759 0.12139-1.0891 0-1.0891-1.1531v-1.76h-0.58667v-0.7148h0.58667v-0.79235l0.93733-0.2731v1.0654h0.81932v0.7148h-0.81932v1.5948q0 0.58668 0.46192 0.58668 0.19219 0 0.3574-0.1079z"/>
    <path d="m129.83 232.92h-0.96093v-2.0904h-2.2051v2.0904h-0.96093v-4.9631h0.96093v2.0399h2.2051v-2.0399h0.96093z"/>
    <path d="m134.14 232.92h-0.93733v-0.54621h-0.0169q-0.39112 0.63388-1.0857 0.63388-1.2442 0-1.2442-1.497v-2.1343h0.9407v2.0365q0 0.85978 0.66759 0.85978 0.32706 0 0.53273-0.23265 0.20568-0.23602 0.20568-0.63051v-2.0331h0.93733z"/>
    <path d="m136.06 232.48v0.44169h-0.9407v-5.243h0.9407v2.259h0.0101q0.41134-0.64399 1.1734-0.64399 0.67433 0 1.0553 0.47204 0.381 0.47203 0.381 1.2846 0 0.88676-0.43832 1.4229-0.43495 0.5361-1.1599 0.5361-0.66422 0-1.0115-0.52936zm-0.0135-1.0722q0 0.36752 0.22591 0.61702 0.2259 0.24951 0.56644 0.24951 0.41135 0 0.644-0.32031 0.23264-0.32031 0.23264-0.90025 0-0.48215-0.21241-0.75526-0.21242-0.2731-0.60017-0.2731-0.37425 0-0.61702 0.27648-0.23939 0.27648-0.23939 0.70468z"/>
   </g>
  </g>
 </g>
</svg>
