<?xml version="1.0" encoding="UTF-8"?>
<!-- Created with Inkscape (http://www.inkscape.org/) -->
<svg width="30mm" height="15mm" version="1.1" viewBox="0 0 43.528 35.26" xmlns="http://www.w3.org/2000/svg" aria-labelledby="Post Man" role="img">
 <defs>
  <clipPath id="clipPath13410">
   <g display="none">
    <path d="m-1.8226 26.338 5.9868 0.42095-3.0402-3.3208z" fill="#fff"/>
    <path d="m5.1465 26.385-3.6248-3.6248 10.687-10.687 4.9235-1.3192 2.688 2.688-4.6181 3.7762s-9.5883 5.332-10.009 5.4723c-0.42095 0.14032 0.23386 3.0402 0.23386 3.0402s0.46772 1.3096-0.28063 0.65481z" fill="#fff"/>
    <path d="m20.347 13.032-2.4088-2.3386 12.839-11.412s0.82081-0.63831 0.56272 0.32489c-0.25808 0.96319-3.8602 6.27-4.7722 7.182-0.91206 0.91206-6.2207 6.2441-6.2207 6.2441z" fill="#fff"/>
    <path d="m13.542 10.903 2.9233-0.63142-1.3096-1.3096z" fill="#fff"/>
    <path d="m8.748 9.2664 5.6127-0.88867-2.4322-2.5023z" fill="#fff"/>
    <path d="m15.91 8.406 1.4552 1.6206 13.791-12.237s0.62839-1.0914-0.49609-2.1167-2.1497 0-2.1497 0z" fill="#fff"/>
    <path d="m12.536 5.1649 2.5466 2.712 13.229-13.196 0.89297-0.033073 0.16536-0.099219-0.06615-0.29766s-1.7198-1.2237-3.4396-0.16536-6.6146 4.1341-13.328 11.079z" fill="#fff"/>
    <circle transform="translate(1.552 .34013)" cx="34.364" cy="-9.1226" r="5.0932" d="m 39.457544,-9.122612 a 5.0932293,5.0932293 0 0 1 -5.093229,5.0932293 5.0932293,5.0932293 0 0 1 -5.093229,-5.0932293 5.0932293,5.0932293 0 0 1 5.093229,-5.093229 5.0932293,5.0932293 0 0 1 5.093229,5.093229 z" fill="#03444a" mask="url(#mask-powermask-path-effect13343)" opacity=".49611" stroke="#03444a" stroke-linecap="round" stroke-width=".665" style="font-variation-settings:'wght' 355;paint-order:markers fill stroke"/>
   </g>
   <path class="powerclip" d="m-20.373-31.587h79.653v79.653h-79.653zm18.551 57.925 5.9868 0.42095-3.0402-3.3208zm6.9691 0.04677c0.74835 0.65481 0.28063-0.65481 0.28063-0.65481s-0.65481-2.8999-0.23386-3.0402c0.42095-0.14032 10.009-5.4723 10.009-5.4723l4.6181-3.7762-2.688-2.688-4.9235 1.3192-10.687 10.687zm15.201-13.353s5.3086-5.332 6.2207-6.2441c0.91206-0.91206 4.5141-6.2189 4.7722-7.182 0.25809-0.96319-0.56272-0.32489-0.56272-0.32489l-12.839 11.412zm-6.8054-2.1281 2.9233-0.63142-1.3096-1.3096zm-4.7941-1.637 5.6127-0.88867-2.4322-2.5023zm7.1617-0.86037 1.4552 1.6206 13.791-12.237s0.62839-1.0914-0.49609-2.1167-2.1497 0-2.1497 0zm-3.3734-3.2411 2.5466 2.712 13.229-13.196 0.89297-0.033073 0.16536-0.099219-0.06615-0.29766s-1.7198-1.2237-3.4396-0.16536-6.6146 4.1341-13.328 11.079zm26.921-14.288a5.0932 5.0932 0 0 0-5.0932-5.0932 5.0932 5.0932 0 0 0-5.0932 5.0932 5.0932 5.0932 0 0 0 5.0932 5.0932 5.0932 5.0932 0 0 0 5.0932-5.0932z"/>
  </clipPath>
 </defs>
 <g transform="translate(-48.774 -120.87)">
  <g transform="matrix(.36911 0 0 .36911 62.819 130.69)" fill="current">
   <text transform="scale(.96991 1.031)" x="20.888163" y="66.727364" font-family="Bahnschrift" font-size="19.161px" letter-spacing=".010265px" stroke-width=".25662" word-spacing=".012831px" style="font-variant-caps:normal;font-variant-east-asian:normal;font-variant-ligatures:normal;font-variant-numeric:normal;font-variation-settings:'wght' 355;line-height:1.95" xml:space="preserve"><tspan x="20.893295" y="66.727364" dx="0.029097425" fill="current" font-family="Bahnschrift" font-size="19.161px" stroke-width=".25662" text-align="center" text-anchor="middle" style="font-variant-caps:normal;font-variant-east-asian:normal;font-variant-ligatures:normal;font-variant-numeric:normal;font-variation-settings:'wght' 355">P O S T M A N</tspan></text>
   <path d="m54.18 8.2394a34.727 34.727 0 0 1-34.727 34.727 34.727 34.727 0 0 1-34.727-34.727 34.727 34.727 0 0 1 34.727-34.727 34.727 34.727 0 0 1 34.727 34.727z" clip-path="url(#clipPath13410)" stroke="#03444a" stroke-width=".2" style="font-variation-settings:'wght' 355"/>
  </g>
 </g>
</svg>
