<?xml version="1.0" encoding="UTF-8"?>
<!-- Created with Inkscape (http://www.inkscape.org/) -->
<svg width="20mm" height="15mm" version="1.1" viewBox="0 0 39.684 39.244" xmlns="http://www.w3.org/2000/svg">
 <g transform="translate(-49.368 -118.62)">
  <g transform="matrix(1.1194 0 0 1.1194 -8.2647 -16.534)">
   <path d="m76.34 155.29s-0.04741 0.50218 0.72231 0.50218c0.76972 0 0.95936 0.0333 1.3944-0.19976 0.43506-0.23306 7.5076-3.6401 7.5076-3.6401s0.97052-0.5327 0.97052-1.6647v-23.988s0.0639-1.1205-1.0074-1.7358c-1.0713-0.6153-7.9141-3.741-7.9141-3.741s-1.3526-0.36623-1.4418 0.41063c-0.08924 0.77685 1.0151 0.61038 1.0151 0.61038l0.50199 1.6758v28.833z" fill="current"/>
   <path d="m55.772 147.3s-0.93868 0.58371-1.7511-0.12621-2.1692-2.0114-2.1692-2.0114-0.86768-1.0018 0.0631-1.8616c0.93079-0.85979 24.421-22.165 24.421-22.165s0.75725-0.43384 1.3646 0.1341c0.60738 0.56793 0.4575 0.97811 0.4575 1.3883v7.6849z" fill="current"/>
   <path d="m52.02 133.46s-1.0705-1.0229-0.01586-2.0776c1.0546-1.0546 2.1513-1.9626 2.1513-1.9626s0.77476-0.6859 1.7461 0.0357c0.97138 0.72159 22.398 16.976 22.398 16.976l-0.01663 8.3193s-0.1348 0.76918-0.80089 0.95155c-0.66609 0.18239-1.2529-0.14272-1.2529-0.14272z" fill="current"/>
  </g>
 </g>
</svg>
