<?xml version="1.0" encoding="UTF-8"?>
<!-- Created with Inkscape (http://www.inkscape.org/) -->
<svg width="30mm" height="15mm" version="1.1" viewBox="0 0 47.222 26.12" xmlns="http://www.w3.org/2000/svg">
 <defs>
  <clipPath id="clipPath99259-0">
   <path d="m-7.9105 17.669 1.6806-3.5796-0.091379 2.4088h1.3564l-1.6103 3.7186 0.067825-2.5959z" display="none" fill="none" stroke="current" stroke-width=".26458px"/>
   <path class="powerclip" d="m-16.178 7.5842h19.296v19.296h-19.296zm8.268 10.085 1.4031-0.04803-0.067825 2.5959 1.6103-3.7186h-1.3564l0.091379-2.4088z" fill="none" stroke="#000" stroke-width=".26458px"/>
  </clipPath>
 </defs>
 <g transform="translate(6.1365 -2.426)">
  <g transform="matrix(1.3587 0 0 1.3587 -37.669 34.108)" fill="current">
   <path transform="translate(45.829 -35.742)" d="m-2.0828 17.232a4.4478 4.4478 0 0 1-4.4478 4.4478 4.4478 4.4478 0 0 1-4.4478-4.4478 4.4478 4.4478 0 0 1 4.4478-4.4478 4.4478 4.4478 0 0 1 4.4478 4.4478z" clip-path="url(#clipPath99259-0)" stroke="current" stroke-width=".4"/>
   <g transform="scale(.97509 1.0255)" stroke-width=".25799" aria-label="FastAPl">
    <path d="m28.811-10.827h-3.7943v2.1163h3.2601v0.88684h-3.2601v3.6129h-0.9977v-7.5029h4.792z"/>
    <path d="m33.744-4.2106h-0.94227v-0.59963q-0.12597 0.085661-0.34264 0.24187-0.21163 0.15117-0.41319 0.24187-0.23683 0.11589-0.5442 0.19148-0.30737 0.080622-0.72056 0.080622-0.76087 0-1.29-0.50389-0.52908-0.50389-0.52908-1.2849 0-0.63994 0.2721-1.033 0.27714-0.39807 0.78606-0.62482 0.51396-0.22675 1.2345-0.30737 0.72056-0.080622 1.5469-0.12093v-0.14613q0-0.32249-0.11589-0.53412-0.11086-0.21163-0.32249-0.33257-0.20156-0.11589-0.48373-0.1562-0.28218-0.040311-0.58955-0.040311-0.37288 0-0.83141 0.10078-0.45854 0.095739-0.94731 0.28218h-0.05039v-0.96242q0.27714-0.075583 0.80118-0.16628 0.52404-0.0907 1.033-0.0907 0.59459 0 1.033 0.10078 0.44342 0.095738 0.76591 0.33257 0.31745 0.23179 0.48373 0.59963 0.16628 0.36784 0.16628 0.91203zm-0.94227-1.3857v-1.5671q-0.43334 0.025194-1.0229 0.075583-0.58451 0.050389-0.92715 0.14613-0.40815 0.11589-0.66009 0.3628-0.25194 0.24187-0.25194 0.67017 0 0.48373 0.29226 0.73064 0.29225 0.24187 0.89188 0.24187 0.49885 0 0.91204-0.19148 0.41319-0.19652 0.76591-0.46861z"/>
    <path d="m39.589-5.8331q0 0.77095-0.63994 1.2648-0.6349 0.49381-1.7384 0.49381-0.62482 0-1.1489-0.14613-0.519-0.15117-0.87172-0.32753v-1.0632h0.05039q0.44846 0.3376 0.9977 0.53916 0.54924 0.19652 1.0531 0.19652 0.62482 0 0.97754-0.20155 0.35272-0.20155 0.35272-0.6349 0-0.33257-0.19148-0.50389t-0.73567-0.29225q-0.20156-0.04535-0.52908-0.10582-0.32249-0.060466-0.58955-0.13101-0.74071-0.19652-1.0531-0.57443-0.30737-0.38295-0.30737-0.93723 0-0.34768 0.14109-0.65505 0.14613-0.30737 0.43838-0.54924 0.28218-0.23683 0.71552-0.37288 0.43838-0.14109 0.97754-0.14109 0.50389 0 1.0179 0.12597 0.519 0.12093 0.86165 0.29729v1.0128h-0.05039q-0.3628-0.26706-0.8818-0.44846-0.519-0.18644-1.0179-0.18644-0.519 0-0.87676 0.20155-0.35776 0.19652-0.35776 0.58955 0 0.34768 0.21667 0.52404 0.21163 0.17636 0.68529 0.28722 0.26202 0.060466 0.58451 0.12093 0.32753 0.060466 0.5442 0.11086 0.66009 0.15117 1.0179 0.519 0.35776 0.37288 0.35776 0.98762z"/>
    <path d="m43.867-4.2609q-0.26706 0.070544-0.58451 0.11589-0.31241 0.04535-0.55932 0.04535-0.86165 0-1.3101-0.46358t-0.44846-1.4865v-2.9931h-0.63994v-0.79614h0.63994v-1.6175h0.94731v1.6175h1.9551v0.79614h-1.9551v2.5648q0 0.44342 0.02015 0.69536 0.02016 0.2469 0.14109 0.46358 0.11086 0.20155 0.30233 0.29729 0.19652 0.0907 0.59459 0.0907 0.23179 0 0.48373-0.065505 0.25194-0.070544 0.3628-0.11589h0.05039z"/>
    <path d="m51.002-4.2106h-1.0632l-0.73568-2.0911h-3.245l-0.73568 2.0911h-1.0128l2.7311-7.5029h1.3303zm-2.1062-2.9477-1.3151-3.6834-1.3202 3.6834z"/>
    <path d="m57.049-9.4459q0 0.49885-0.17636 0.92715-0.17132 0.42326-0.48373 0.73567-0.38799 0.38799-0.91707 0.58451-0.52908 0.19148-1.3353 0.19148h-0.9977v2.7966h-0.9977v-7.5029h2.0357q0.67521 0 1.1438 0.11589 0.46861 0.11086 0.83141 0.35272 0.4283 0.28722 0.66009 0.71552 0.23683 0.4283 0.23683 1.0834zm-1.038 0.025194q0-0.38799-0.13605-0.67521-0.13605-0.28722-0.41319-0.46862-0.24187-0.1562-0.55428-0.22171-0.30737-0.07054-0.78102-0.07054h-0.98762v2.9981h0.84149q0.60466 0 0.98258-0.10582 0.37792-0.11086 0.61474-0.34768 0.23683-0.24187 0.33256-0.50893 0.10078-0.26706 0.10078-0.59963z"/>
    <path d="m59.245-4.2106h-0.94731v-7.8405h0.94731z"/>
   </g>
  </g>
 </g>
</svg>
