<?xml version="1.0" encoding="UTF-8"?>
<!-- Created with Inkscape (http://www.inkscape.org/) -->
<svg width="30mm" height="15mm" version="1.1" viewBox="0 0 47.899 34.334" xmlns="http://www.w3.org/2000/svg" aria-labelledby="PHP" role="img">
 <defs>
  <clipPath id="clipPath86098">
   <g display="none">
    <path d="m5.5126 23.251 1.8084-11.776 6.1186 0.12679s2.3823 1.2216 1.5914 4.3311c-0.79096 3.1096-2.8407 3.9382-2.8407 3.9382l-3.9028-0.19493-0.59213 3.5393z" fill="none" stroke="#000" stroke-width=".26458px"/>
    <path d="m22.54 23.265 1.8084-11.776 6.1186 0.12679s2.3823 1.2216 1.5914 4.3311c-0.79096 3.1096-2.8407 3.9382-2.8407 3.9382l-3.9028-0.19493-0.59213 3.5393z" fill="none" stroke="#000" stroke-width=".26458px"/>
    <path d="m16.512 8.3581 2.3483 0.16325-0.55956 2.9771 2.4806 0.09699s2.4806 0.16314 2.3826 1.4531c-0.09806 1.2899-0.986 6.8801-0.986 6.8801l-2.249-0.0972 0.98684-5.954s-0.29831-0.72734-1.5551-0.75928c-1.2568-0.03194-1.5541 0.3652-1.5541 0.3652l-0.85419 6.3508-2.3483-0.13018z" fill="none" stroke="#000" stroke-width=".26458px"/>
   </g>
   <path class="powerclip" d="m-4.8988 0.67978h46.406v32.014h-46.406zm10.411 22.571 2.1828-0.03504 0.59213-3.5393 3.9028 0.19493s2.0498-0.82867 2.8407-3.9382c0.79096-3.1096-1.5914-4.3311-1.5914-4.3311l-6.1186-0.12679zm17.028 0.01418 2.1828-0.03504 0.59213-3.5393 3.9028 0.19493s2.0498-0.82867 2.8407-3.9382c0.79096-3.1096-1.5914-4.3311-1.5914-4.3311l-6.1186-0.12679zm-6.028-14.907-1.908 11.346 2.3483 0.13018 0.85419-6.3508s0.2973-0.39714 1.5541-0.3652 1.5551 0.75928 1.5551 0.75928l-0.98684 5.954 2.249 0.0972s0.88794-5.5901 0.986-6.8801c0.09806-1.2899-2.3826-1.4531-2.3826-1.4531l-2.4806-0.09699 0.55956-2.9771z"/>
  </clipPath>
 </defs>
 <g transform="translate(6.5048 .56892)">
  <g transform="matrix(1.3157 0 0 1.5597 41.002 3.7984)" fill="current">
   <path transform="translate(-36.209 -8.48)" d="m36.508 16.687a18.203 11.007 0 0 1-18.203 11.007 18.203 11.007 0 0 1-18.203-11.007 18.203 11.007 0 0 1 18.203-11.007 18.203 11.007 0 0 1 18.203 11.007z" clip-path="url(#clipPath86098)"/>
   <path d="m-27.581 9.3006 2.3564-0.05999s1.3803-0.57175 1.7094-2.358c0.32912-1.7862-1.0272-2.1158-1.0272-2.1158l-2.2821-0.09717z" stroke="current" stroke-width=".26458px"/>
   <path d="m-10.406 9.4065 2.3564-0.05999s1.3803-0.57175 1.7094-2.358c0.32912-1.7862-1.0272-2.1158-1.0272-2.1158l-2.2821-0.09717z" stroke="current" stroke-width=".26458px"/>
  </g>
 </g>
</svg>
