<?xml version="1.0" encoding="UTF-8"?>
<!-- Created with Inkscape (http://www.inkscape.org/) -->
<svg width="30mm" height="15mm" version="1.1" viewBox="0 0 35.807 34.734" xmlns="http://www.w3.org/2000/svg" aria-labelledby="Python" role="img">
 <defs>
  <clipPath id="clipPath84350">
   <ellipse cx="13.5" cy="5.1617" rx="1.4052" ry="1.3561" d="M 14.905205,5.161706 A 1.4052377,1.3560688 0 0 1 13.499968,6.5177748 1.4052377,1.3560688 0 0 1 12.09473,5.161706 1.4052377,1.3560688 0 0 1 13.499968,3.8056371 1.4052377,1.3560688 0 0 1 14.905205,5.161706 Z" display="none" fill="none" stroke="#e2444a" stroke-width=".30466"/>
   <path class="powerclip" d="m-4.5142-4.0291h36.519v35.978h-36.519zm19.419 9.1909a1.4052 1.3561 0 0 0-1.4052-1.3561 1.4052 1.3561 0 0 0-1.4052 1.3561 1.4052 1.3561 0 0 0 1.4052 1.3561 1.4052 1.3561 0 0 0 1.4052-1.3561z" fill="none" stroke="#e2444a" stroke-width=".30466"/>
  </clipPath>
  <clipPath id="clipath_lpe_path-effect84414">
   <ellipse cx="13.5" cy="5.1617" rx="1.4052" ry="1.3561" d="M 14.905205,5.161706 A 1.4052377,1.3560688 0 0 1 13.499968,6.5177748 1.4052377,1.3560688 0 0 1 12.09473,5.161706 1.4052377,1.3560688 0 0 1 13.499968,3.8056371 1.4052377,1.3560688 0 0 1 14.905205,5.161706 Z" display="none" fill="none" stroke="#e2444a" stroke-width=".30466"/>
   <path class="powerclip" d="m-4.5142-4.0291h36.519v35.978h-36.519zm19.419 9.1909a1.4052 1.3561 0 0 0-1.4052-1.3561 1.4052 1.3561 0 0 0-1.4052 1.3561 1.4052 1.3561 0 0 0 1.4052 1.3561 1.4052 1.3561 0 0 0 1.4052-1.3561z" fill="none" stroke="#e2444a" stroke-width=".30466"/>
  </clipPath>
 </defs>
 <g transform="translate(7.292 5.8669)">
  <g transform="translate(-39.087 24.434)" fill="current">
   <path transform="translate(31.309 -31.272)" d="m8.6246 26.82 0.028584-4.994s0.29439-3.6383 3.337-3.7733c3.0426-0.13503 11.476-0.20875 11.476-0.20875s3.6707-0.43325 3.5346-4.6995c-0.13613-4.2663 0-8.7899 0-8.7899s-0.61897-3.4138-8.4533-3.3833c-7.8343 0.030428-8.8142 2.6506-8.8142 2.6506v5.1917h8.6108v1.2319h-13.049s-4.8166 0.81106-4.8099 8.3414c0.006769 7.5303 3.0341 9.0677 8.1388 8.4334z" clip-path="url(#clipPath84350)"/>
   <path transform="rotate(180 34.044 2.702)" d="m8.6246 26.82 0.028584-4.994s0.29439-3.6383 3.337-3.7733c3.0426-0.13503 11.476-0.20875 11.476-0.20875s3.6707-0.43325 3.5346-4.6995c-0.13613-4.2663 0-8.7899 0-8.7899s-0.61897-3.4138-8.4533-3.3833c-7.8343 0.030428-8.8142 2.6506-8.8142 2.6506v5.1917h8.6108v1.2319h-13.049s-4.8166 0.81106-4.8099 8.3414c0.006769 7.5303 3.0341 9.0677 8.1388 8.4334z" clip-path="url(#clipath_lpe_path-effect84414)"/>
  </g>
 </g>
</svg>
