<?xml version="1.0" encoding="UTF-8"?>
<!-- Created with Inkscape (http://www.inkscape.org/) -->
<svg width="30mm" height="15mm" version="1.1" viewBox="0 0 37 37" xmlns="http://www.w3.org/2000/svg">
 <defs>
  <clipPath id="clipPath2161">
   <path d="m52.975 49.956 0.31235-21.195 11.066 0.04462s4.5068 0.17848 5.1761 5.0422c0.66932 4.8637-3.8821 4.9084-3.8821 4.9084s5.3992 0.53546 5.0422 5.3099c-0.35423 4.7379-4.9923 5.7132-5.2315 5.7159-5.29e-4 8e-6 -7.94e-4 1.67e-4 -7.94e-4 1.67e-4z" display="none" fill="#f00" stroke="#000" stroke-width=".26458px"/>
   <path class="powerclip" d="m37.468 16.14h46.867v46.476h-46.867zm15.507 33.816 12.482-0.17401s2.65e-4 -1.59e-4 7.94e-4 -1.67e-4c0.23924-0.0027 4.8773-0.97795 5.2315-5.7159 0.35697-4.7745-5.0422-5.3099-5.0422-5.3099s4.5514-0.04462 3.8821-4.9084c-0.66932-4.8637-5.1761-5.0422-5.1761-5.0422l-11.066-0.04462z" fill="#f00" stroke="#000" stroke-width=".26458px"/>
  </clipPath>
 </defs>
 <g transform="translate(-37.84 -.036526)" fill="current">
  <path transform="translate(-4.4809 -20.772)" d="m42.469 25.305v28.081s0.44173 4.228 6.3735 4.228h24.926s5.4901 0.25242 5.5532-4.6697c0.0631-4.9221-0.12621-27.766-0.12621-27.766s0.50483-4.0387-4.0387-4.0387h-29.091s-3.66 0.12621-3.5969 4.1649z" clip-path="url(#clipPath2161)"/>
  <path d="m52.089 16.078v-5.6223h6.6263s2.0531 0.64789 2.0754 2.6335c0.02231 1.9857-1.7413 2.7775-1.7413 2.7775z"/>
  <path d="m52.312 25.669v-5.6082h7.3636s2.2816 0.64627 2.3064 2.6269c0.02479 1.9807-1.9351 2.7705-1.9351 2.7705z"/>
 </g>
</svg>
