<?xml version="1.0" encoding="UTF-8"?>
<!-- Created with Inkscape (http://www.inkscape.org/) -->
<svg width="30mm" height="15mm" version="1.1" viewBox="0 0 36.364 35.78" xmlns="http://www.w3.org/2000/svg">
 <defs>
  <clipPath id="clipPath6470">
   <g display="none">
    <path d="m9.2445 6.9682 0.22311 3.4805 4.4621-0.08924v13.476l-2.8111-0.31235-0.08924-2.588-3.4358-0.22311 0.53546 5.5777 8.9243 1.5171v-20.749z" fill="none" stroke="#000" stroke-width=".26458px"/>
    <path d="m23.64 10.325 5.2692 0.03155 0.34707-3.2499h-9.4025l-0.09466 10.98 5.2376-0.03155-0.31552 5.427-4.7959 1.1674v3.7863l7.9827-2.0824 0.82035-11.643-5.2061 0.12621z" fill="none" stroke="#000" stroke-width=".26458px"/>
   </g>
   <path class="powerclip" d="m-1.8369-4.4879h41.047v45.78h-41.047zm11.081 11.456 0.22311 3.4805 4.4621-0.08924v13.476l-2.8111-0.31235-0.08924-2.588-3.4358-0.22311 0.53546 5.5777 8.9243 1.5171v-20.749zm14.396 3.3566 5.2692 0.03155 0.34707-3.2499h-9.4025l-0.09466 10.98 5.2376-0.03155-0.31552 5.427-4.7959 1.1674v3.7863l7.9827-2.0824 0.82035-11.643-5.2061 0.12621z"/>
  </clipPath>
 </defs>
 <g transform="translate(-.39522 -1.4346)">
  <path transform="matrix(1.1712 0 0 1 -3.3095 .92251)" d="m34.21 0.5752-2.7766 31.615-12.747 4.1018-12.81-4.0387-2.7135-31.741z" clip-path="url(#clipPath6470)" fill="current"/>
 </g>
</svg>
